<?xml version="1.0" encoding="utf-8"?>
<!-- Generator: Adobe Illustrator 21.0.0, SVG Export Plug-In . SVG Version: 6.00 Build 0)  -->
<svg version="1.1" id="Layer_1" xmlns="http://www.w3.org/2000/svg" xmlns:xlink="http://www.w3.org/1999/xlink" x="0px" y="0px"
	 viewBox="0 0 1280 1024" style="enable-background:new 0 0 1280 1024;" xml:space="preserve">
<style type="text/css">
	.st0{fill:#FFFFFF;}
	.st1{fill:#008AB9;}
	.st2{fill:none;stroke:#FFFFFF;stroke-miterlimit:10;}
</style>
<g>
	<g>
		<path class="st0" d="M443,630.5c-0.3,47.1-30,90.6-74.6,106.7c-44.8,16.2-95.7,2.3-126.2-34.1c-30.7-36.6-34.5-90.4-9.9-131.1
			c24.4-40.4,72.9-62.1,119.3-52.8c46.2,9.2,82.4,46.9,90.1,93.3C442.6,618.4,443,624.5,443,630.5c0,6.4,10,6.4,10,0
			c-0.3-51.3-32.5-97.9-80.7-115.9c-48.5-18.1-105.2-2.8-138.1,37.3c-32.8,40-37.4,97.8-10.6,142.2c26.8,44.4,79.7,67.5,130.6,57.4
			c49.7-9.9,89.6-51.6,97.3-101.7c1-6.4,1.5-12.8,1.5-19.3C453,624.1,443,624.1,443,630.5z"/>
	</g>
</g>
<g>
	<g>
		<path class="st0" d="M860.5,631c-0.3,47.1-30,90.6-74.6,106.7c-44.8,16.2-95.7,2.3-126.2-34.1c-30.7-36.6-34.5-90.4-9.9-131.1
			c24.4-40.4,72.9-62.1,119.3-52.8c46.2,9.2,82.4,46.9,90.1,93.3C860.1,618.9,860.5,625,860.5,631c0,6.4,10,6.4,10,0
			c-0.3-51.3-32.5-97.9-80.7-115.9c-48.5-18.1-105.2-2.8-138.1,37.3c-32.8,40-37.4,97.8-10.6,142.2c26.8,44.4,79.7,67.5,130.6,57.4
			c49.7-9.9,89.6-51.6,97.3-101.7c1-6.4,1.5-12.8,1.5-19.3C870.5,624.6,860.5,624.6,860.5,631z"/>
	</g>
</g>
<g>
	<g>
		<path class="st0" d="M512.5,658c-0.3,11.7-9.5,21.5-21.5,21.5c-11.7,0-21.5-9.8-21.5-21.5c0-11.7,9.7-21.5,21.5-21.5
			C503,636.5,512.2,646.3,512.5,658c0.2,6.4,10.2,6.4,10,0c-0.3-13.1-8.1-24.8-20.5-29.5c-12.2-4.6-26.6-0.9-35,9.1
			c-8.6,10.2-10,25.2-3,36.7c6.9,11.3,20.1,17,33,14.6c14.9-2.7,25.1-16.1,25.5-30.9C522.7,651.6,512.7,651.6,512.5,658z"/>
	</g>
</g>
<g>
	<g>
		<path class="st0" d="M458,475.5c29.2,0,58.4,0,87.5,0c46.6,0,93.1,0,139.7,0c10.8,0,21.5,0,32.3,0c6.4,0,6.4-10,0-10
			c-29.2,0-58.4,0-87.5,0c-46.6,0-93.1,0-139.7,0c-10.8,0-21.5,0-32.3,0C451.6,465.5,451.6,475.5,458,475.5L458,475.5z"/>
	</g>
</g>
<g>
	<g>
		<path class="st0" d="M454.5,466.5c-14.5,18-29,36-43.6,54c-23.2,28.7-46.3,57.4-69.5,86.1c-5.3,6.6-10.7,13.2-16,19.8
			c-4,5,3,12.1,7.1,7.1c14.5-18,29-36,43.6-54c23.2-28.7,46.3-57.4,69.5-86.1c5.3-6.6,10.7-13.2,16-19.8
			C465.5,468.6,458.5,461.5,454.5,466.5L454.5,466.5z"/>
	</g>
</g>
<g>
	<g>
		<path class="st0" d="M497,654.6c-5-26.6-10-53.2-15-79.8c-8-42.4-15.9-84.7-23.9-127.1c-1.8-9.6-3.6-19.3-5.4-28.9
			c-1.2-6.3-10.8-3.6-9.6,2.7c5,26.6,10,53.2,15,79.8c8,42.4,15.9,84.7,23.9,127.1c1.8,9.6,3.6,19.3,5.4,28.9
			C488.5,663.6,498.2,660.9,497,654.6L497,654.6z"/>
	</g>
</g>
<g>
	<g>
		<path class="st0" d="M752,629.6c-3.7-19.7-7.3-39.5-11-59.2c-5.9-31.5-11.7-63-17.6-94.5c-1.4-7.3-2.7-14.5-4.1-21.8
			c-1.6,2.1-3.2,4.2-4.8,6.3c16.2,1.4,37.7-2.8,46.2-18.3c5.8-10.6,5.3-25.5-3.3-34.4c-7.5-7.8-19.1-10.1-29.5-10.6
			c-7.6-0.4-15.3,0.1-22.8,1.5c-6.3,1.2-3.6,10.8,2.7,9.6c3.9-0.7,8.5-1.1,13.7-1.2c8.4-0.2,17.8,0.4,25.2,4.9
			c8.1,4.9,9.7,15.4,6.1,23.7c-3.6,8.3-12.4,12-20.7,13.7c-5.7,1.2-11.8,1.6-17.6,1.1c-3.5-0.3-5.4,3.4-4.8,6.3
			c3.7,19.7,7.3,39.5,11,59.2c5.9,31.5,11.7,63,17.6,94.5c1.4,7.3,2.7,14.5,4.1,21.8C743.5,638.6,753.1,635.9,752,629.6L752,629.6z"
			/>
	</g>
</g>
<g>
	<g>
		<path class="st0" d="M494.5,661.5c25.1-20.9,50.3-41.7,75.4-62.6c40.1-33.3,80.2-66.6,120.3-99.9c9.2-7.7,18.5-15.3,27.7-23
			c5-4.1-2.2-11.2-7.1-7.1c-25.1,20.9-50.3,41.7-75.4,62.6c-40.1,33.3-80.2,66.6-120.3,99.9c-9.2,7.7-18.5,15.3-27.7,23
			C482.5,658.6,489.6,665.6,494.5,661.5L494.5,661.5z"/>
	</g>
</g>
<g>
	<g>
		<path class="st0" d="M430,410c2.2,0.3,0.3,0.1-0.3-0.1c-1.1-0.3-2.2-0.5-3.3-0.9c-3-1.1-5.8-3-7.6-5.8c-4.2-6.7-1.8-10.2,5-11.3
			c10.5-1.7,22.5,0.3,32.8,2.9c11.8,3,23.5,6.8,35.2,10.2c1.4,0.4,2.7,0.7,4.2,1c-1.5-0.3,0.3,0,1,0.2c0.8,0.2,2.2,0.7,2.7,0.8
			c0.1,0,0.9,0.4,0.8,0.5c-0.1,0.1-1.2-2-0.7-1.9c-0.2,0-5.8,4.6-6.4,5c-3.9,2.3-8.4,3.4-12.9,4c-16.1,2.2-33.6-0.5-49.3-4.5
			c-6.2-1.6-8.9,8-2.7,9.6c17.2,4.5,36.3,7.2,54,4.6c5.2-0.8,10.3-2.1,15-4.6c4.5-2.5,10.9-6.5,12-12.1c1.7-8.5-7.5-10.4-13.6-11.7
			c2.5,0.5,0.5,0-0.2-0.2c-1.4-0.5-2.8-0.8-4.2-1.2c-4.2-1.2-8.3-2.4-12.5-3.6c-6.6-1.9-13.2-4.1-19.9-5.8
			c-5.1-1.3-10.5-2.1-15.7-2.7c-8.4-1.1-18-2-26.2,0.7c-11,3.7-13,15-7.5,24.6c4.1,7.1,12.1,11.2,20,12.2
			C436.4,420.8,436.3,410.8,430,410z"/>
	</g>
</g>
<path class="st0" d="M734.5,412.6h-31c-4.1,0-7.5-3.4-7.5-7.5v-3.2c0-4.1,3.4-7.5,7.5-7.5h31c4.1,0,7.5,3.4,7.5,7.5v3.2
	C742,409.2,738.6,412.6,734.5,412.6z"/>
<g>
	<g>
		<path class="st0" d="M327.7,634.8c47.4,8.2,94.8,16.4,142.2,24.6c6.6,1.1,13.2,2.3,19.8,3.4c6.3,1.1,9-8.5,2.7-9.6
			c-47.4-8.2-94.8-16.4-142.2-24.6c-6.6-1.1-13.2-2.3-19.8-3.4C324,624.1,321.3,633.7,327.7,634.8L327.7,634.8z"/>
	</g>
</g>
</svg>
