<?xml version="1.0" encoding="utf-8"?>
<!-- Generator: Adobe Illustrator 21.0.0, SVG Export Plug-In . SVG Version: 6.00 Build 0)  -->
<svg version="1.1" id="Layer_1" xmlns="http://www.w3.org/2000/svg" xmlns:xlink="http://www.w3.org/1999/xlink" x="0px" y="0px"
	 viewBox="0 0 1280 1024" style="enable-background:new 0 0 1280 1024;" xml:space="preserve">
<style type="text/css">
	.st0{fill:#FFFFFF;}
	.st1{fill:#008AB9;}
	.st2{fill:none;stroke:#FFFFFF;stroke-miterlimit:10;}
</style>
<g>
	<g>
		<g>
			<path class="st0" d="M624.5,671c60.9-0.1,121.9-16,173.9-48c47.2-29.1,86.7-71.5,108.4-122.9c12.2-28.7,18.5-59.5,18.6-90.6
				c0-2.7-2.3-5-5-5c-19.8,0-39.5,0-59.3,0c-47.1,0-94.1,0-141.2,0c-56.9,0-113.8,0-170.7,0c-49.3,0-98.6,0-147.9,0
				c-23.9,0-47.9-0.8-71.8,0c-0.3,0-0.7,0-1,0c-2.7,0-5,2.3-5,5c0.2,55.3,20.5,108.3,55.3,151.1c36.3,44.7,86.8,76.8,141.3,94.3
				C553.9,665.7,589.2,670.9,624.5,671c6.4,0,6.4-10,0-10c-59-0.1-117.8-15.4-168.2-46.3c-45.6-28-83.8-68.9-104.9-118.5
				c-11.7-27.4-17.6-57-17.7-86.7c-1.7,1.7-3.3,3.3-5,5c19.8,0,39.5,0,59.3,0c47.1,0,94.1,0,141.2,0c56.9,0,113.8,0,170.7,0
				c49.3,0,98.6,0,147.9,0c16.2,0,32.4,0,48.6,0c7.5,0,15.7,1,23.2,0c0.3,0,0.7,0,1,0c-1.7-1.7-3.3-3.3-5-5
				c-0.2,53.2-19.8,104.5-53.6,145.5c-35.5,43-84.1,73.9-137,90.7c-32.4,10.3-66.3,15.3-100.3,15.3C618.1,661,618.1,671,624.5,671z"
				/>
		</g>
	</g>
</g>
<g>
	<g>
		<path class="st0" d="M263,720.5c34.1-0.2,66.5-13.4,91-37c-2.4,0-4.7,0-7.1,0c40.4,38.9,102.3,48.2,152.1,21.9
			c13.3-7,25.3-16.5,35.5-27.5c-2.4,0-4.7,0-7.1,0c37.7,41,98.2,53.9,149.3,31.6c14.2-6.2,27.1-15.1,38.3-25.9c-2.4,0-4.7,0-7.1,0
			c40.5,39,102.7,48.2,152.5,21.6c13.4-7.1,25.4-16.7,35.6-27.9c-2.4,0-4.7,0-7.1,0c24.8,27.4,60.1,43,97,43.3c6.4,0,6.4-10,0-10
			c-34.5-0.2-66.8-14.8-90-40.3c-1.8-1.9-5.3-1.9-7.1,0c-21.7,23.9-51.9,38.8-84.3,40.2c-33.3,1.5-65.7-10.9-89.7-34
			c-2-1.9-5.1-1.9-7.1,0c-24,23.1-56.3,35.4-89.6,34c-32.1-1.4-62.2-16-83.8-39.6c-1.8-1.9-5.3-1.9-7.1,0
			c-21.6,23.6-51.7,38.2-83.8,39.6c-33.3,1.5-65.6-10.9-89.6-34c-2-1.9-5.1-1.9-7.1,0c-22.7,21.8-52.5,33.9-84,34.1
			C256.6,710.5,256.6,720.5,263,720.5L263,720.5z"/>
	</g>
</g>
</svg>
